<?xml version="1.0" standalone="no"?>
<!DOCTYPE svg PUBLIC "-//W3C//DTD SVG 1.1//EN" "http://www.w3.org/Graphics/SVG/1.1/DTD/svg11.dtd" >
<svg xmlns="http://www.w3.org/2000/svg">
<metadata>Generated by IcoMoon</metadata>
<defs>
<font id="icomoon" horiz-adv-x="1024">
<font-face units-per-em="1024" ascent="960" descent="-64" />
<missing-glyph horiz-adv-x="1024" />
<glyph unicode="&#x20;" horiz-adv-x="512" d="" />
<glyph unicode="&#xe900;" glyph-name="scrap" horiz-adv-x="768" d="M109.653 960h548.608c60.587 0 109.739-51.115 109.739-114.176v-909.824l-380.587 396.117-387.413-396.117v909.824c0 63.061 49.067 114.176 109.653 114.176z" />
<glyph unicode="&#xe901;" glyph-name="briefcase" d="M1024.392-64h-1024.392v849.702h1024.392v-849.702zM42.725-20.426h938.964v762.553h-938.964v-762.553zM1003.041 480.681h-981.689v43.574h981.689v-43.574zM640.349 349.957h-256.305v152.511h42.725v-108.936h170.877v108.936h42.703v-152.511zM725.776 763.915h-42.725c-0.044 6.144-2.941 152.511-170.855 152.511-168.916 0-170.855-146.279-170.855-152.511h-42.725c0 1.961 2.44 196.085 213.58 196.085s213.58-194.124 213.58-196.085z" />
<glyph unicode="&#xe902;" glyph-name="earth" d="M512 960c-0.143 0-0.287 0-0.43 0-0.061 0-0.123 0-0.205 0-0.205 0-0.41-0.041-0.594-0.041-282.235-0.635-510.771-229.601-510.771-511.959 0-282.296 228.536-511.283 510.751-511.98 0.205 0 0.41-0.041 0.594-0.041 0.082 0 0.143 0 0.205 0 0.164 0 0.307 0 0.43 0 282.726 0 512 229.274 512 512 0.020 282.767-229.253 512.020-511.98 512.020zM532.48 653.599c54.272 1.475 107.090 8.622 157.962 21.033 15.34-60.355 24.842-129.905 26.337-206.152h-184.3v185.119zM532.48 694.559v221.245c55.214-15.299 111.145-88.883 146.801-201.769-47.309-11.407-96.379-18.043-146.801-19.476zM491.52 916.275v-221.716c-50.831 1.434-100.311 8.192-147.988 19.784 35.942 113.562 92.406 187.453 147.988 201.933zM491.52 653.64v-185.16h-185.59c1.495 76.37 11.039 146.002 26.378 206.397 51.261-12.513 104.489-19.804 159.212-21.238zM264.724 468.48h-223.232c4.526 105.288 43.745 201.769 106.537 278.159 45.609-25.129 93.983-45.67 144.65-61.030-16.548-65.331-26.46-138.977-27.955-217.129zM264.724 427.52c1.495-78.111 11.428-151.757 27.955-217.088-50.668-15.401-99.062-35.963-144.65-61.071-62.812 76.39-102.031 172.872-106.557 278.159h223.252zM305.93 427.52h185.59v-184.914c-54.723-1.434-107.95-8.765-159.212-21.32-15.34 60.334-24.863 129.946-26.378 206.234zM491.52 201.667v-221.962c-55.624 14.52-112.128 88.474-148.050 202.158 47.698 11.612 97.198 18.371 148.050 19.804zM532.48-19.804v221.471c50.442-1.434 99.512-8.11 146.842-19.517-35.635-112.968-91.607-186.675-146.842-201.953zM532.48 242.586v184.934h184.3c-1.495-76.165-10.998-145.633-26.276-205.967-50.913 12.39-103.731 19.599-158.024 21.033zM758.006 427.52h224.522c-4.526-105.288-43.725-201.728-106.516-278.118-45.978 25.272-94.761 45.998-145.879 61.44 16.486 65.229 26.358 138.711 27.873 216.678zM758.006 468.48c-1.495 78.090-11.407 151.593-27.914 216.883 51.077 15.442 99.86 36.127 145.797 61.399 62.853-76.39 102.093-172.913 106.639-278.282h-224.522zM847.667 778.035c-40.735-21.688-83.763-39.608-128.676-53.207-23.941 77.046-57.569 139.919-97.3 181.207 87.183-20.931 165.048-66.048 225.976-128zM400.691 905.626c-39.547-41.206-72.991-103.793-96.85-180.429-44.483 13.558-87.122 31.314-127.508 52.838 60.518 61.563 137.81 106.557 224.358 127.59zM176.21 118.108c40.428 21.565 83.087 39.322 127.59 52.879 23.859-76.718 57.324-139.407 96.891-180.634-86.61 21.074-163.922 66.109-224.481 127.754zM621.65-10.015c39.793 41.288 73.421 104.202 97.382 181.35 44.933-13.64 87.982-31.519 128.737-53.289-60.908-61.972-138.834-107.172-226.12-128.061z" />
<glyph unicode="&#xe903;" glyph-name="exclamation" d="M512-64c-282.317 0-512 229.683-512 512s229.683 512 512 512 512-229.683 512-512-229.683-512-512-512zM512 919.040c-259.727 0-471.040-211.292-471.040-471.040s211.313-471.040 471.040-471.040 471.040 211.292 471.040 471.040-211.313 471.040-471.040 471.040zM512 775.68c11.305 0 20.48-9.175 20.48-20.48v-357.663c0-11.305-9.175-20.48-20.48-20.48s-20.48 9.175-20.48 20.48v357.663c0 11.305 9.175 20.48 20.48 20.48zM512 292.209c11.305 0 20.48-9.175 20.48-20.48v-89.969c0-11.305-9.175-20.48-20.48-20.48s-20.48 9.175-20.48 20.48v89.969c0 11.305 9.175 20.48 20.48 20.48z" />
<glyph unicode="&#xe904;" glyph-name="news-paper" horiz-adv-x="1089" d="M261.447 960v-544.681h-261.447c0 0 0-269.268 0-356.308s81.027-123.011 141.072-123.011c60.024 0 664.511 0 817.566 0 66.037 0 130.723 64.229 130.723 130.723 0 47.997 0 893.277 0 893.277h-827.915zM141.072-20.426c-27.147 0-97.498 14.271-97.498 79.436v312.734h217.872v-293.932c0-29.173-38.128-98.239-98.239-98.239h-22.136zM1045.787 66.723c0-42.333-44.795-87.149-87.149-87.149h-699.348c29.347 30.567 45.731 70.721 45.731 98.239v838.612h740.766v-849.702zM936.851 371.745h-522.894v-43.574h522.894v43.574zM936.851 219.234h-522.894v-43.574h522.894v43.574zM936.851 807.489h-522.894v-326.809h522.894v326.809zM893.277 524.255h-435.745v239.66h435.745v-239.66z" />
<glyph unicode="&#xe905;" glyph-name="note" d="M1004.664 940.464c-13.076 13.031-30.206 19.536-47.314 19.536-17.13 0-34.238-6.505-47.269-19.514l-196.763-196.34v37.201h-713.318v-845.325h847.063v711.826h-41.010l198.612 198.233c26.13 26.018 26.13 68.32 0 94.383zM802.466-19.515h-757.892v756.333h661.438l-349.353-348.618v-96.276h92.779l353.050 352.36v-663.799zM973.144 877.535l-542.173-541.148h-29.738v33.369l540.391 539.255c5.658 5.658 12.274 6.482 15.727 6.482 3.475 0 10.113-0.846 15.771-6.505 5.703-5.658 6.549-12.296 6.549-15.749 0.022-3.43-0.824-10.024-6.527-15.704z" />
<glyph unicode="&#xe906;" glyph-name="relation" horiz-adv-x="904" d="M902.886 509.624c0 13.731-0.793 27.297-2.024 40.727-0.274 2.845-0.547 5.689-0.848 8.561-1.45 12.992-3.364 25.848-5.935 38.484-0.438 2.106-0.957 4.185-1.395 6.291-2.516 11.542-5.498 22.921-8.862 34.135-0.629 2.024-1.176 4.075-1.805 6.099-3.857 12.117-8.288 23.988-13.129 35.64-1.067 2.571-2.188 5.087-3.31 7.604-5.17 11.816-10.695 23.468-16.876 34.737-6.154 11.242-12.937 22.046-20.022 32.658-1.86 2.817-3.802 5.58-5.717 8.342-6.455 9.218-13.184 18.244-20.295 26.914-1.067 1.286-2.024 2.598-3.036 3.857-8.124 9.683-16.712 18.955-25.601 27.926-2.298 2.298-4.65 4.54-7.002 6.783-7.631 7.358-15.481 14.442-23.605 21.252-1.915 1.614-3.747 3.282-5.662 4.841-9.819 7.959-19.967 15.426-30.443 22.565-2.462 1.668-5.033 3.228-7.522 4.869-8.753 5.717-17.724 11.105-26.914 16.22-2.626 1.45-5.17 2.981-7.85 4.404-11.269 5.963-22.757 11.488-34.573 16.493-2.298 0.985-4.705 1.833-7.057 2.79-10.038 4.048-20.186 7.741-30.552 11.078-3.2 1.039-6.346 2.079-9.573 3.036-12.445 3.72-25.109 7.029-38.046 9.683-1.668 0.328-3.364 0.547-5.033 0.875-11.542 2.243-23.249 3.966-35.038 5.306-3.528 0.41-7.057 0.766-10.64 1.121-13.512 1.203-27.133 2.051-40.973 2.051v0c-10.312 0-20.459-0.793-30.607-1.559l-30.716-3.118c-219.143-29.677-388.123-215.396-388.123-440.666 0-225.298 168.98-410.989 388.096-440.694v-126.038c159.462 0 510.66 270.401 510.66 506.010 3.282 22.702 0.027 60.721 0.027 60.721zM431.367 525.652c-16.767-94.145-111.076-188.099-111.076-188.099v107.766c-63.73 0-115.343 48.249-115.343 107.766s51.613 107.766 115.343 107.766c63.675 0 115.343-48.249 115.343-107.766 0.027-9.546-1.751-18.627-4.267-27.434zM723.157 525.652c-16.767-94.145-111.131-188.099-111.131-188.099v107.766c-63.675 0-115.343 48.249-115.343 107.766s51.668 107.766 115.343 107.766 115.343-48.249 115.343-107.766c0.027-9.546-1.751-18.627-4.212-27.434z" />
<glyph unicode="&#xe907;" glyph-name="tag" horiz-adv-x="1025" d="M1005.814 467.115v0l-512.288-512.352c-11.655-11.526-27.664-18.763-45.273-18.763-17.674 0-33.683 7.172-45.273 18.763v0l-384.216 384.216c-11.591 11.655-18.763 27.664-18.763 45.338 0 17.61 7.172 33.619 18.763 45.273v0l512.288 512.288c11.591 11.591 27.6 18.763 45.273 18.763h384.216c35.348 0 64.036-28.688 64.036-64.036v-384.216c0-17.674-7.172-33.683-18.763-45.273zM896.504 832.568h-293.669l-448.252-448.252 293.669-293.669 448.252 448.252v293.669zM736.414 768.532c53.022 0 96.054-42.968 96.054-96.054s-43.032-96.054-96.054-96.054-96.054 42.968-96.054 96.054 43.032 96.054 96.054 96.054z" />
<glyph unicode="&#xe908;" glyph-name="text" horiz-adv-x="866" d="M708.923-62.74h-551.385c-86.961 0-157.538 70.577-157.538 157.46v709.002c0 86.961 70.577 157.538 157.538 157.538h393.846c0 0 170.457-81.369 199.365-115.712 23.001-27.412 115.712-199.444 115.712-199.444v-551.385c0-86.961-70.577-157.46-157.538-157.46zM590.769 488.645h-393.846c-21.74 0-39.385-17.644-39.385-39.463 0-21.662 17.644-39.306 39.385-39.306h393.846c21.662 0 39.385 17.644 39.385 39.306 0 21.819-17.723 39.463-39.385 39.463zM590.769 331.028h-393.846c-21.74 0-39.385-17.566-39.385-39.306s17.644-39.385 39.385-39.385h393.846c21.662 0 39.385 17.644 39.385 39.385s-17.723 39.306-39.385 39.306zM590.769 173.568h-393.846c-21.74 0-39.385-17.644-39.385-39.463 0-21.662 17.644-39.385 39.385-39.385h393.846c21.662 0 39.385 17.723 39.385 39.385 0 21.819-17.723 39.463-39.385 39.463z" />
<glyph unicode="&#xe909;" glyph-name="ribbon" horiz-adv-x="811" d="M-2.667 954.667v-1024l405.333 298.667 405.355-298.667v1024h-810.688zM765.355 15.125l-362.688 267.2-25.323-18.624-337.344-248.576v896.875h725.355v-896.875zM616 698.667h-426.667v-42.667h426.667v42.667zM616 528h-426.667v-42.667h426.667v42.667z" />
<glyph unicode="&#xe90a;" glyph-name="share" horiz-adv-x="1063" d="M905.846 960c-87.001 0-157.538-70.558-157.538-157.538 0-15.104 2.245-29.676 6.203-43.5l-460.564-193.044c-27.215 47.183-78.060 79.006-136.409 79.006-86.981 0-157.538-70.558-157.538-157.538 0-87.001 70.558-157.538 157.538-157.538 45.568 0 86.548 19.495 115.298 50.452l296.763-213.287c-11.579-21.937-18.215-46.887-18.215-73.433 0-87.040 70.558-157.578 157.538-157.578s157.538 70.538 157.538 157.578c0 86.961-70.558 157.499-157.538 157.499-46.277 0-87.769-20.086-116.598-51.85l-296.369 212.933c12.19 22.37 19.121 47.99 19.121 75.225 0 14.631-2.146 28.751-5.888 42.22l460.898 193.201c27.372-46.553 77.863-77.883 135.759-77.883 87.001 0 157.538 70.538 157.538 157.558 0 86.961-70.538 157.519-157.538 157.519zM708.923 211.692c65.162 0 118.154-52.992 118.154-118.114 0-65.162-52.992-118.193-118.154-118.193s-118.154 53.031-118.154 118.193c0 65.122 52.992 118.114 118.154 118.114zM157.538 369.231c-65.162 0-118.154 52.992-118.154 118.154s52.992 118.154 118.154 118.154 118.154-52.992 118.154-118.154c0-65.162-52.992-118.154-118.154-118.154zM905.846 684.288c-65.162 0-118.154 53.012-118.154 118.174s52.992 118.154 118.154 118.154 118.154-52.992 118.154-118.154c0-65.162-52.992-118.174-118.154-118.174z" />
<glyph unicode="&#xe90b;" glyph-name="shield" horiz-adv-x="1089" d="M958.595 88.511h-827.828c-72.094 0-130.767 58.673-130.767 130.854v609.825c0 72.138 58.673 130.811 130.767 130.811h827.828c72.094 0 130.767-58.673 130.767-130.811v-609.825c0-72.181-58.673-130.854-130.767-130.854zM130.767 916.426c-48.084 0-87.193-39.152-87.193-87.236v-609.825c0-48.128 39.108-87.28 87.193-87.28h827.828c48.084 0 87.193 39.152 87.193 87.28v609.825c0 48.084-39.108 87.236-87.193 87.236h-827.828zM544.681 374.555c-120.135 0-196.085 100.635-196.085 224.387v136.824c0 5.991 2.462 11.722 6.819 15.839s10.24 6.166 16.188 5.926c97.672-5.403 112.509 13.138 157.74 57.802 8.519 8.388 22.136 8.388 30.633 0 45.23-44.664 60.002-63.292 157.74-57.802 6.035 0.24 11.83-1.808 16.188-5.926s6.863-9.848 6.863-15.839v-136.824c0-123.751-75.95-224.387-196.085-224.387zM392.17 713.129v-114.187c0-99.698 56.407-180.812 152.511-180.812s152.511 81.114 152.511 180.812v114.187c-87.519-1.416-109.481 18.345-152.511 56.734-43.030-38.411-65.275-58.281-152.511-56.734zM1067.574 241.021h-1024c-12.027 0-21.787 9.739-21.787 21.787s9.761 21.787 21.787 21.787h1024c12.027 0 21.787-9.739 21.787-21.787s-9.761-21.787-21.787-21.787zM457.532-42.213c-12.048 0-21.787 9.739-21.787 21.787v108.936c0 12.048 9.739 21.787 21.787 21.787s21.787-9.739 21.787-21.787v-108.936c0-12.048-9.739-21.787-21.787-21.787zM631.83-42.213c-12.048 0-21.787 9.739-21.787 21.787v108.936c0 12.048 9.739 21.787 21.787 21.787s21.787-9.739 21.787-21.787v-108.936c0-12.048-9.739-21.787-21.787-21.787zM740.766-64h-392.17c-12.048 0-21.787 9.739-21.787 21.787s9.739 21.787 21.787 21.787h392.17c12.027 0 21.787-9.739 21.787-21.787s-9.761-21.787-21.787-21.787z" />
<glyph unicode="&#xe90c;" glyph-name="user" d="M512 960c-282.788 0-512-229.192-512-512 0-282.788 229.212-512 512-512s512 229.212 512 512c0 282.808-229.212 512-512 512zM512 917.34c258.785 0 469.34-210.534 469.34-469.34 0-113.848-40.796-218.358-108.503-299.704-46.797 19.538-157.245 57.876-225.628 78.070-5.837 1.823-6.758 2.13-6.758 26.399 0 20.050 8.253 40.223 16.302 57.324 8.704 18.555 19.046 49.766 22.753 77.763 10.363 12.042 24.494 35.799 33.587 81.060 7.967 39.895 4.26 54.415-1.044 68.035-0.532 1.434-1.126 2.867-1.536 4.26-2.007 9.359 0.758 57.958 7.578 95.662 4.71 25.887-1.208 80.896-36.823 126.403-22.508 28.774-65.556 64.082-144.179 69.018l-43.11-0.041c-77.292-4.874-120.381-40.182-142.889-68.956-35.615-45.507-41.533-100.536-36.823-126.382 6.861-37.724 9.585-86.323 7.619-95.498-0.41-1.597-1.004-3.011-1.577-4.465-5.243-13.619-8.991-28.16-1.004-68.035 9.032-45.261 23.163-69.018 33.587-81.060 3.666-27.996 14.008-59.208 22.753-77.763 6.39-13.599 9.38-32.051 9.38-58.184 0-24.269-0.922-24.576-6.39-26.296-70.717-20.89-183.255-61.542-225.219-79.913-69.038 81.715-110.756 187.208-110.756 302.305 0 258.806 210.534 469.34 469.34 469.34zM184.32 112.415c48.046 19.62 143.831 53.78 206.746 72.356 36.577 11.551 36.577 42.353 36.577 67.113 0 20.521-1.413 50.77-13.414 76.37-8.253 17.51-17.674 47.555-19.743 71.086-0.451 5.489-3.052 10.588-7.209 14.193-6.042 5.304-18.33 24.678-26.173 63.754-6.205 30.925-3.584 37.704-1.044 44.237 1.085 2.785 2.13 5.55 2.97 8.643 5.12 18.719-0.594 80.241-6.799 114.36-2.703 14.848 0.717 56.975 28.467 92.488 24.883 31.826 62.546 49.541 110.592 52.613l40.468 0.041c49.336-3.092 86.999-20.828 111.903-52.654 27.75-35.492 31.13-77.64 28.426-92.488-6.164-34.12-11.919-95.642-6.799-114.34 0.86-3.113 1.864-5.878 2.97-8.663 2.54-6.533 5.161-13.312-1.004-44.237-7.844-39.096-20.173-58.45-26.214-63.754-4.137-3.625-6.717-8.704-7.209-14.193-2.048-23.511-11.469-53.576-19.702-71.086-9.462-20.111-20.337-46.899-20.337-75.489 0-24.74 0-55.562 36.966-67.195 60.211-17.797 156.467-50.852 207.299-70.84-84.89-84.050-201.503-136.049-330.035-136.049-127.406-0.020-243.016 51.077-327.7 133.734z" />
<glyph unicode="&#xe90d;" glyph-name="video" horiz-adv-x="1687" d="M1531.693 839.529l-387.223-232.87v262.987c0 49.875-40.478 90.353-90.353 90.353h-963.765c-49.935 0-90.353-40.478-90.353-90.353v-843.294c0-49.905 40.418-90.353 90.353-90.353h963.765c49.875 0 90.353 40.448 90.353 90.353v267.987l395.776-237.869h146.342v783.059h-154.895zM1084.235 26.353c0-16.625-13.523-30.118-30.118-30.118h-963.765c-16.655 0-30.118 13.493-30.118 30.118v843.294c0 16.595 13.463 30.118 30.118 30.118h963.765c16.595 0 30.118-13.493 30.118-30.118v-843.294zM1626.353 116.706h-69.421l-412.461 247.959v171.701l403.938 242.929h77.944v-662.588z" />
<glyph unicode="&#xe90e;" glyph-name="gear" d="M921.6 516.267h-50.039c-7.987 0-18.978 71.475-32.905 96.461l35.43 43.964c40.004 40.004 40.004 109.090 0 149.094s-104.789 42.121-144.794 2.116l-35.499-34.338c-24.917 13.858-51.405 25.941-79.394 33.997v50.039c0 56.525-45.875 102.4-102.4 102.4-56.593 0-102.4-45.875-102.4-102.4v-50.039c-28.058-8.055-54.477-19.115-79.394-32.973l-35.43 35.43c-40.004 40.004-104.858 40.004-144.862 0-39.936-40.004-39.936-104.789 0-144.794l35.43-52.497c-13.858-24.986-24.917-96.461-32.905-96.461h-50.039c-56.593 0-102.4-45.807-102.4-102.4 0-56.525 45.807-102.4 102.4-102.4h50.039c7.987 0 19.046-37.342 32.905-62.259l-35.43-27.034c-39.936-40.004-39.936-100.557 0-140.561 40.004-40.004 104.858-37.888 144.862 2.116l35.43 36.454c24.917-13.79 51.337-23.757 79.394-31.744v-50.039c0-56.593 45.807-102.4 102.4-102.4 56.525 0 102.4 45.807 102.4 102.4v50.039c27.989 7.919 54.477 18.978 79.326 32.836l35.499-35.43c40.004-40.004 104.789-40.004 144.794 0s40.004 104.789 0 144.794l-35.43 18.5c13.926 24.917 24.917 62.259 32.905 62.259h50.108c56.525 0.068 102.4 45.943 102.4 102.468 0 56.593-45.875 102.4-102.4 102.4zM512 277.333c-94.276 0-170.667 76.39-170.667 170.667s76.39 170.667 170.667 170.667 170.667-76.39 170.667-170.667c0-94.276-76.39-170.667-170.667-170.667z" />
<glyph unicode="&#xe90f;" glyph-name="curation" d="M0 960h279.273v-372.364h-279.273v372.364zM372.364 960h279.273v-465.455h-279.273v465.455zM372.364 401.455h279.273v-465.455h-279.273v465.455zM744.727 960h279.273v-279.273h-279.273v279.273zM0 494.545h279.273v-372.364h-279.273v372.364zM744.727 587.636h279.273v-465.455h-279.273v465.455z" />
<glyph unicode="&#xe910;" glyph-name="timeLine" horiz-adv-x="1240" d="M0 960h53.895v-1024h-53.895v1024zM377.263 960h862.316v-269.474h-862.316l-140.126 134.737 140.126 134.737zM377.263 582.737h862.316v-269.474h-862.316l-140.126 134.737 140.126 134.737zM377.263 205.474h862.316v-269.474h-862.316l-140.126 134.737 140.126 134.737z" />
<glyph unicode="&#xe911;" glyph-name="calender" horiz-adv-x="1062" d="M980.217-64h-898.532c-45.090 0-81.685 39.495-81.685 84.625v735.163c0 45.090 36.554 81.685 81.685 81.685h81.685v-40.842c0-67.676 54.851-122.527 122.527-122.527s122.527 54.851 122.527 122.527v40.842h245.054v-40.842c0-67.676 54.851-122.527 122.527-122.527s122.527 54.851 122.527 122.527v40.842h81.685c45.090 0 81.685-36.595 81.685-81.685v-735.163c0-45.090-36.595-84.625-81.685-84.625zM980.217 548.636h-898.532v-530.951h898.532v530.951zM285.897 306.522h-122.527v122.527h122.527v-122.527zM285.897 102.31h-122.527v122.527h122.527v-122.527zM490.108 306.522h-122.527v122.527h122.527v-122.527zM490.108 102.31h-122.527v122.527h122.527v-122.527zM694.32 306.522h-122.527v122.527h122.527v-122.527zM694.32 102.31h-122.527v122.527h122.527v-122.527zM898.532 306.522h-122.527v122.527h122.527v-122.527zM898.532 102.31h-122.527v122.527h122.527v-122.527zM774.739 714.946c-44.437 0-80.419 35.982-80.419 80.419v84.217c0 44.437 35.982 80.419 80.419 80.419 44.396 0 80.419-35.982 80.419-80.419v-84.258c0-44.396-36.023-80.378-80.419-80.378zM284.63 714.946c-44.437 0-80.419 35.982-80.419 80.419v84.217c0 44.437 35.982 80.419 80.419 80.419 44.396 0 80.419-35.982 80.419-80.419v-84.258c0-44.396-36.023-80.378-80.419-80.378z" />
<glyph unicode="&#xe912;" glyph-name="list" horiz-adv-x="1422" d="M85.333 960c47.104 0 85.333-38.229 85.333-85.333s-38.229-85.333-85.333-85.333c-47.161 0-85.333 38.229-85.333 85.333s38.172 85.333 85.333 85.333zM369.778 960h967.111c47.104 0 85.333-38.229 85.333-85.333s-38.229-85.333-85.333-85.333h-967.111c-47.161 0-85.333 38.229-85.333 85.333s38.172 85.333 85.333 85.333zM85.333 675.556c47.104 0 85.333-38.229 85.333-85.333s-38.229-85.333-85.333-85.333c-47.161 0-85.333 38.229-85.333 85.333s38.172 85.333 85.333 85.333zM369.778 675.556h967.111c47.104 0 85.333-38.229 85.333-85.333s-38.229-85.333-85.333-85.333h-967.111c-47.161 0-85.333 38.229-85.333 85.333s38.172 85.333 85.333 85.333zM85.333 391.111c47.104 0 85.333-38.229 85.333-85.333s-38.229-85.333-85.333-85.333c-47.161 0-85.333 38.229-85.333 85.333s38.172 85.333 85.333 85.333zM369.778 391.111h967.111c47.104 0 85.333-38.229 85.333-85.333s-38.229-85.333-85.333-85.333h-967.111c-47.161 0-85.333 38.229-85.333 85.333s38.172 85.333 85.333 85.333zM85.333 106.667c47.104 0 85.333-38.229 85.333-85.333s-38.229-85.333-85.333-85.333c-47.161 0-85.333 38.229-85.333 85.333s38.172 85.333 85.333 85.333zM369.778 106.667h967.111c47.104 0 85.333-38.229 85.333-85.333s-38.229-85.333-85.333-85.333h-967.111c-47.161 0-85.333 38.229-85.333 85.333s38.172 85.333 85.333 85.333z" />
<glyph unicode="&#xe913;" glyph-name="bookmark" horiz-adv-x="1023" d="M1020.631 573.447c-8.316 26.953-32.327 44.993-59.407 44.993-0.085 0-0.128 0-0.171 0l-298.018-0.682-91.307 296.781c-8.316 27.038-32.369 45.462-59.493 45.462s-51.177-18.296-59.493-45.334l-91.265-296.909-298.061 0.682c-0.043 0-0.128 0-0.171 0-27.038 0-51.049-18.040-59.407-44.993-8.359-26.996 0.853-56.465 22.816-73.097l241.596-182.444-92.885-296.184c-8.487-26.996 0.725-56.55 22.646-73.225 10.918-8.316 23.84-12.496 36.677-12.496 12.965 0 25.887 4.222 36.89 12.581l240.615 183.937 240.615-183.937c11.003-8.359 23.968-12.581 36.89-12.581s25.759 4.179 36.719 12.496c21.921 16.675 31.090 46.272 22.646 73.225l-92.928 296.184 241.596 182.53c22.049 16.632 31.303 46.016 22.902 73.012z" />
<glyph unicode="&#xe914;" glyph-name="place" horiz-adv-x="768" d="M384-64c0 0-384 427.968-384 640s171.904 384 384 384c212.032 0 384-171.968 384-384s-384-640-384-640zM385.344 831.68c-141.184 0-256-114.816-256-256 0-81.6 120.256-272.128 256-441.792 135.68 169.664 256 360.192 256 441.792 0 141.184-114.816 256-256 256zM320 576c0 35.328 28.672 64 64 64s64-28.672 64-64-28.672-64-64-64c-35.328 0-64 28.672-64 64z" />
<glyph unicode="&#xe915;" glyph-name="clock" d="M512 960c-282.761 0-512-229.239-512-512 0-282.829 229.239-512 512-512 282.692 0 512 229.171 512 512 0 282.761-229.308 512-512 512zM507.836 33.348c-228.42 0-413.559 185.207-413.559 413.628 0 228.352 185.139 413.559 413.559 413.559s413.491-185.139 413.491-413.559c0-228.42-185.003-413.628-413.491-413.628zM610.304 307.849h-156.399c-21.504 0-38.98 17.476-38.98 38.912v237.227c0 21.504 17.408 38.98 38.98 38.98s38.98-17.476 38.98-38.98v-198.11h117.419c21.436 0 38.912-17.476 38.912-39.049 0-21.504-17.476-38.98-38.912-38.98z" />
<glyph unicode="&#xe916;" glyph-name="excel" horiz-adv-x="1243" d="M0 960v-1024h1243.429v1024h-1243.429zM1098.313 668.891h-586.679v142.555h586.679v-142.555zM511.634 520.338h586.679v-145.481h-586.679v145.481zM365.349 374.857h-220.233v145.481h220.233v-145.481zM365.349 811.447v-142.555h-220.233v142.555h220.233zM145.115 226.304h220.233v-141.751h-220.233v141.751zM511.634 84.553v141.751h586.679v-141.751h-586.679z" />
<glyph unicode="&#xea08;" glyph-name="notification" d="M512 864c-111.118 0-215.584-43.272-294.156-121.844s-121.844-183.038-121.844-294.156c0-111.118 43.272-215.584 121.844-294.156s183.038-121.844 294.156-121.844c111.118 0 215.584 43.272 294.156 121.844s121.844 183.038 121.844 294.156c0 111.118-43.272 215.584-121.844 294.156s-183.038 121.844-294.156 121.844zM512 960v0c282.77 0 512-229.23 512-512s-229.23-512-512-512c-282.77 0-512 229.23-512 512s229.23 512 512 512zM448 256h128v-128h-128zM448 768h128v-384h-128z" />
</font>
</defs>
</svg>
